<svg fill="none" xmlns="http://www.w3.org/2000/svg" viewBox="0 0 50 50"><g clip-path="url(#clip0)"><path d="M24.39 10.32l.46 1.092.46-1.092c1.946-4.611 6.384-7.819 11.53-7.819 6.893 0 11.943 5.904 12.581 13.087l.002.026.005.023h0v.001h0l.002.01.008.052c.007.049.017.125.026.228.02.206.039.52.034.936-.008.833-.11 2.076-.49 3.684-1.032 4.375-3.462 8.27-6.745 11.246l-.002.002-17.408 15.531L7.738 31.795h0C4.454 28.819 2.024 24.922.99 20.547h0C.61 18.94.509 17.696.5 16.863c-.005-.416.014-.73.034-.936a4.68 4.68 0 01.034-.28l.002-.01h0l.005-.024.002-.026C1.216 8.404 6.266 2.5 13.159 2.5c5.134 0 9.279 3.195 11.23 7.82z" fill="none" stroke="#000"/></g><defs><clipPath id="clip0"><path fill="#fff" d="M0 0h50v50H0z"/></clipPath></defs></svg>